<svg width="11" height="11" viewBox="0 0 11 11" fill="none" xmlns="http://www.w3.org/2000/svg">
<path d="M3.255 0.146057C1.517 0.146057 0.102051 1.54402 0.102051 3.26202V7.57703C0.102051 9.29503 1.517 10.6931 3.255 10.6931H7.62097C9.35897 10.6931 10.774 9.29503 10.774 7.57703V3.26202C10.774 1.54402 9.35897 0.146057 7.62097 0.146057H3.255ZM3.255 0.626038H7.62097C9.09697 0.626038 10.2891 1.80302 10.2891 3.26202V7.57703C10.2891 9.03503 9.09697 10.2131 7.62097 10.2131H3.255C1.779 10.2131 0.587036 9.03503 0.587036 7.57703V3.26202C0.587036 1.80302 1.779 0.626038 3.255 0.626038ZM8.349 2.06403C8.081 2.06403 7.86401 2.27803 7.86401 2.54303C7.86401 2.80803 8.081 3.02307 8.349 3.02307C8.617 3.02307 8.83398 2.80803 8.83398 2.54303C8.83398 2.27803 8.617 2.06403 8.349 2.06403ZM5.43799 2.78302C3.96799 2.78302 2.77002 3.96607 2.77002 5.41907C2.77002 6.87307 3.96799 8.05603 5.43799 8.05603C6.90799 8.05603 8.10608 6.87307 8.10608 5.41907C8.10608 3.96607 6.90799 2.78302 5.43799 2.78302ZM5.43799 3.26202C6.64599 3.26202 7.62097 4.22507 7.62097 5.41907C7.62097 6.61407 6.64599 7.57703 5.43799 7.57703C4.22999 7.57703 3.255 6.61407 3.255 5.41907C3.255 4.22507 4.22999 3.26202 5.43799 3.26202Z" fill="#16B198"/>
</svg>
