<svg width="12" height="11" viewBox="0 0 12 11" fill="none" xmlns="http://www.w3.org/2000/svg">
<path d="M0.836914 3.22205H3.05988V10.6931H0.836914V3.22205ZM1.94189 2.34406H1.92889C1.26589 2.34406 0.836914 1.85502 0.836914 1.24402C0.836914 0.621019 1.2789 0.146057 1.9549 0.146057C2.6309 0.146057 3.04788 0.621019 3.05988 1.24402C3.05988 1.85402 2.63089 2.34406 1.94189 2.34406ZM11.5079 10.6931H9.28491V6.69403C9.28491 5.72803 8.74091 5.06903 7.86591 5.06903C7.19791 5.06903 6.83693 5.51403 6.66193 5.94403C6.59793 6.09703 6.61688 6.52304 6.61688 6.73804V10.6931H4.39392V3.22205H6.61688V4.37207C6.93788 3.88107 7.43988 3.22205 8.72388 3.22205C10.3149 3.22205 11.5079 4.21107 11.5079 6.41907V10.6931Z" fill="#16B198"/>
</svg>
