<svg width="38" height="65" viewBox="0 0 38 65" fill="none" xmlns="http://www.w3.org/2000/svg">
<mask id="mask0_1_56" style="mask-type:luminance" maskUnits="userSpaceOnUse" x="0" y="0" width="38" height="65">
<path d="M37.483 0.46405H0.825073V64.455H37.483V0.46405Z" fill="white"/>
</mask>
<g mask="url(#mask0_1_56)">
<path fill-rule="evenodd" clip-rule="evenodd" d="M15.555 1.93103C16.495 0.99103 17.769 0.46405 19.097 0.46405C20.425 0.46405 21.699 0.99103 22.639 1.93103C26.361 5.65403 32.184 11.476 35.906 15.199C36.846 16.138 37.373 17.4121 37.373 18.7401C37.373 20.0681 36.846 21.342 35.906 22.282C34.262 23.926 32.664 25.524 32.664 25.524C32.664 25.524 24.585 17.4441 20.896 13.7551C20.419 13.2781 19.772 13.0101 19.097 13.0101C18.423 13.0101 17.7749 13.2781 17.2979 13.7551C16.3129 14.7401 15.097 15.956 14.112 16.941C13.635 17.418 13.367 18.0661 13.367 18.7401C13.367 19.4151 13.635 20.0621 14.112 20.5391C16.122 22.5491 19.097 25.524 19.097 25.524L12.3129 32.3071C12.3129 32.3071 6.30792 26.301 2.28792 22.282C0.331923 20.326 0.331923 17.155 2.28792 15.199C6.00992 11.476 11.833 5.65403 15.555 1.93103Z" fill="#16B198"/>
<path fill-rule="evenodd" clip-rule="evenodd" d="M22.645 62.684C21.705 63.623 20.431 64.1511 19.103 64.1511C17.775 64.1511 16.501 63.623 15.561 62.684C11.839 58.961 6.01607 53.139 2.29407 49.416C1.35407 48.477 0.827026 47.203 0.827026 45.874C0.827026 44.546 1.35407 43.2721 2.29407 42.3331C3.93807 40.6891 5.53601 39.0911 5.53601 39.0911C5.53601 39.0911 13.6151 47.1701 17.3041 50.8591C17.7811 51.3371 18.429 51.6041 19.103 51.6041C19.778 51.6041 20.425 51.3371 20.902 50.8591C21.887 49.8751 23.103 48.658 24.088 47.673C24.565 47.196 24.833 46.549 24.833 45.874C24.833 45.2 24.565 44.5531 24.088 44.076C22.078 42.066 19.103 39.0911 19.103 39.0911L25.887 32.3071C25.887 32.3071 31.892 38.3131 35.912 42.3331C37.868 44.2891 37.868 47.46 35.912 49.416C32.19 53.139 26.367 58.961 22.645 62.684Z" fill="#16B198"/>
</g>
</svg>
